<?xml version="1.0" encoding="utf-8"?>
<!-- Generator: Adobe Illustrator 27.5.0, SVG Export Plug-In . SVG Version: 6.00 Build 0)  -->
<svg version="1.1" xmlns="http://www.w3.org/2000/svg" xmlns:xlink="http://www.w3.org/1999/xlink" x="0px" y="0px"
	 viewBox="0 0 500 500" style="enable-background:new 0 0 500 500;" xml:space="preserve">
<g id="BACKGROUND">
	<g>
		<rect id="BACKGROUND_1_" style="fill:#D1F6FF;" width="500" height="500"/>
	</g>
</g>
<g id="OBJECTS">
	<g>
		<path style="fill:#8686E2;stroke:#1B3346;stroke-miterlimit:10;" d="M345.794,75.686c-0.843-0.26-1.704-0.501-2.584-0.717
			c-8.368-2.095-19.277-2.815-28.469-1.871l-0.013,0.001c-8.289,0.868-37.254,5.943-62.123,34.782
			c-16.776-21.57-43.848-35.187-70.86-35.187c-51.035,0-92.555,41.52-92.555,92.555c0,40.898,26.172,76.38,65.18,88.436l0.735,0.365
			h0.493c6.168,1.763,14.066,2.769,21.83,2.769c2.893,0,5.727-0.139,8.43-0.416c8.284-0.857,37.25-5.898,62.171-34.838
			c28.036-32.559,61.119-78.882,62.354-80.922c3.809-6.294,1.789-14.515-4.502-18.323c-6.291-3.812-14.512-1.795-18.326,4.499
			c-0.291,0.481-33.139,46.43-59.748,77.332c-18.497,21.48-38.882,25.105-44.689,25.705c-6.607,0.682-15.188,0.033-20.459-1.544
			l-0.094-0.029c-27.924-8.484-46.687-33.816-46.687-63.034c0-36.32,29.548-65.868,65.868-65.868
			c22.854,0,46.445,14.724,56.095,35.011c1.041,2.189,2.637,4.028,4.643,5.362c0.402,0.395,0.824,0.761,1.255,1.088
			c2.338,1.789,5.126,2.734,8.062,2.734c4.202,0,8.079-1.928,10.639-5.296c3.88-5.116,7.358-9.467,10.335-12.929
			c18.523-21.512,38.886-25.104,44.708-25.696c6.601-0.696,15.24-0.036,20.585,1.587c0.697,0.206,1.395,0.445,2.077,0.682
			l7.12,2.482V80.467h-2.928L345.794,75.686z"/>
		<path style="fill:#8686E2;stroke:#1B3346;stroke-miterlimit:10;" d="M410.795,164.136c-0.128-7.316-1.102-14.585-2.894-21.602
			c-0.362-1.414-3.153-10.618-4.661-13.466l-2.568-4.851l-22.843,12.821l1.706,4.345c2.897,7.378,4.437,15.19,4.578,23.22
			c0.154,8.775-1.386,17.313-4.576,25.375c-1.52,3.84-3.957,8.406-6.776,13.025c-0.103,0.151-0.216,0.294-0.314,0.45
			c-0.074,0.118-7.599,12.097-20.966,27.207c-12.43,14.052-32.465,30.213-61.248,49.405c-6.148,4.1-7.808,12.406-3.709,18.554
			c2.561,3.839,6.761,5.928,11.052,5.957c2.581,0.018,5.193-0.709,7.502-2.249c31.157-20.775,52.271-37.915,66.445-53.94
			c2.383-2.693,4.595-5.294,6.636-7.768c0.42-0.378,0.824-0.775,1.196-1.208c4.374-5.084,9.465-11.952,14.082-19.164
			c1.061-1.588,1.645-2.523,1.731-2.662c0.223-0.359,0.422-0.726,0.607-1.097c3.475-5.736,6.534-11.531,8.578-16.689
			C408.844,188.441,411.011,176.442,410.795,164.136z"/>
	</g>
	<g>
		<path style="fill:#00C99E;stroke:#1B3346;stroke-linecap:round;stroke-linejoin:round;stroke-miterlimit:10;" d="M121.824,261.123
			c13.366,18.771,30.001,36.038,50.367,48.559c0.406,0.25,0.813,0.498,1.22,0.746c12.113,7.38,24.924,13.787,38.244,19.117
			c6.914,2.767,13.542,6.106,20.7,8.346c2.7,0.846,5.444,1.575,8.218,2.185c2.196,0.483,5.683,1.724,7.93,1.37
			c3.713-0.586,0.171-9.485-0.348-11.784c-1.18-5.226-2.564-10.428-4.652-15.416c-4.261-10.183-9.135-20.147-14.588-29.835
			c-6.617-11.756-13.61-22.454-22.917-32.559c-4.45-4.831-10.845-7.433-16.804-10.647c-7.276-3.925-14.553-7.85-21.829-11.775
			c-0.45-0.243-0.93-0.493-1.451-0.481c-0.544,0.012-1.031,0.308-1.446,0.632c-2.639,2.058-3.581,5.534-3.15,8.695
			c0.431,3.161,2.043,6.075,3.802,8.818c3.831,5.972,8.148,11.897,12.96,17.203c2.577,2.841,5.199,5.646,7.797,8.471
			c1.907,2.074,4.549,6.578,7.083,7.861c-9.611-4.865-19.255-9.749-28.084-15.743c-1.183-0.803-2.31-1.648-3.386-2.53
			c-16.798-13.771-21.275-36.54-38.286-50.265c-1.179-0.951-2.911-2.461-4.47-2.831c-1.699-0.404-3.837,0.555-5.492,0.967
			c-2.088-3.882-4.176-7.763-6.264-11.645c-1.212-2.253-2.482-4.575-4.581-6.181c-2.1-1.606-5.274-2.305-7.585-0.967
			c-0.628,0.363,0.598,6.568,0.71,7.403c0.364,2.718,0.84,5.423,1.427,8.108C101.14,226.122,110.167,244.753,121.824,261.123z"/>
		<path style="fill:#00C99E;stroke:#1B3346;stroke-linecap:round;stroke-linejoin:round;stroke-miterlimit:10;" d="M378.226,261.123
			c-13.366,18.771-30.001,36.038-50.367,48.559c-0.406,0.25-0.813,0.498-1.22,0.746c-12.113,7.38-24.924,13.787-38.244,19.117
			c-6.914,2.767-13.542,6.106-20.7,8.346c-2.701,0.846-5.444,1.575-8.218,2.185c-2.196,0.483-5.683,1.724-7.93,1.37
			c-3.713-0.586-0.171-9.485,0.348-11.784c1.18-5.226,2.564-10.428,4.652-15.416c4.261-10.183,9.135-20.147,14.588-29.835
			c6.617-11.756,13.61-22.454,22.917-32.559c4.45-4.831,10.845-7.433,16.804-10.647c7.276-3.925,14.553-7.85,21.829-11.775
			c0.45-0.243,0.93-0.493,1.451-0.481c0.544,0.012,1.031,0.308,1.446,0.632c2.639,2.058,3.581,5.534,3.15,8.695
			c-0.43,3.161-2.043,6.075-3.802,8.818c-3.831,5.972-8.148,11.897-12.96,17.203c-2.577,2.841-5.2,5.646-7.797,8.471
			c-1.907,2.074-4.549,6.578-7.083,7.861c9.611-4.865,19.255-9.749,28.084-15.743c1.183-0.803,2.31-1.648,3.386-2.53
			c16.798-13.771,21.275-36.54,38.286-50.265c1.179-0.951,2.912-2.461,4.47-2.831c1.699-0.404,3.837,0.555,5.491,0.967
			c2.088-3.882,4.176-7.763,6.264-11.645c1.212-2.253,2.482-4.575,4.582-6.181c2.1-1.606,5.274-2.305,7.585-0.967
			c0.628,0.363-0.598,6.568-0.71,7.403c-0.364,2.718-0.84,5.423-1.427,8.108C398.911,226.122,389.883,244.753,378.226,261.123z"/>
	</g>
	<g>
		<path style="fill:#00C99E;stroke:#1B3346;stroke-linecap:round;stroke-linejoin:round;stroke-miterlimit:10;" d="M388.077,117.527
			h-24.375V93.153c0-9.908-8.059-17.966-17.966-17.966c-9.906,0-17.964,8.059-17.964,17.966v24.375h-24.375
			c-9.908,0-17.966,8.059-17.966,17.964c0,9.908,8.059,17.966,17.966,17.966h24.375v24.375c0,9.906,8.059,17.964,17.964,17.964
			c9.908,0,17.966-8.059,17.966-17.964v-24.375h24.375c9.905,0,17.964-8.058,17.964-17.966
			C406.042,125.586,397.983,117.527,388.077,117.527z"/>
	</g>
</g>
<g id="TEXTS">
	<text transform="matrix(1 0 0 1 127.2583 418.1097)"><tspan x="0" y="0" style="fill:#8686E2; font-family:'Rubik-Bold'; font-size:36.8046px;">health</tspan><tspan x="149.867" y="0" style="fill:#1B3346; font-family:'Rubik-Regular'; font-size:36.8046px;">logo</tspan></text>
</g>
</svg>
